<svg width="116" height="19" viewBox="0 0 116 19" fill="none" xmlns="http://www.w3.org/2000/svg">
  <path d="M12.7851 0.384277V18.3125H10.3829V16.4429C9.39531 17.9027 8.00737 18.6199 6.16567 18.6199C4.96457 18.6199 3.92361 18.3381 2.98942 17.8003C2.05522 17.2624 1.33456 16.4685 0.800737 15.4696C0.266912 14.4451 0 13.267 0 11.9096C0 10.5778 0.266912 9.39962 0.774046 8.37515C1.28118 7.35068 2.00184 6.58233 2.90934 6.01887C3.81685 5.45541 4.8845 5.19929 6.05891 5.19929C7.9273 5.19929 9.36862 5.8652 10.3562 7.1714V0.384277H12.7851ZM9.47539 15.5721C10.116 14.7525 10.463 13.5487 10.463 11.9352C10.463 10.4753 10.196 9.29718 9.66222 8.40076C9.1284 7.50435 8.11413 7.04334 6.64612 7.04334C5.20479 7.04334 4.19052 7.45313 3.57663 8.2727C2.96273 9.09228 2.66912 10.296 2.66912 11.9096C2.66912 12.9853 2.77589 13.8561 3.01611 14.5732C3.25633 15.2903 3.6567 15.8282 4.21721 16.2124C4.77773 16.5965 5.57847 16.8014 6.59273 16.8014C7.87391 16.8014 8.8348 16.3916 9.47539 15.5721Z" fill="#000000" />
  <path d="M19.2976 17.9283C18.1232 17.4673 17.189 16.7758 16.4951 15.8538C15.8011 14.9317 15.4541 13.8048 15.4541 12.4474L18.0165 12.1913C18.0165 13.1133 18.23 13.9329 18.6837 14.5988C19.1108 15.2647 19.7247 15.7769 20.4987 16.1355C21.2728 16.4941 22.1269 16.6733 23.1145 16.6733C24.6359 16.6733 25.8904 16.4172 26.8246 15.8794C27.7588 15.3415 28.2392 14.4707 28.2392 13.267C28.2392 12.6523 28.0524 12.1657 27.652 11.8071C27.2516 11.4485 26.7712 11.1924 26.184 11.0131C25.5968 10.8339 24.8227 10.6802 23.8351 10.5009C23.0611 10.3728 22.5006 10.2704 22.1269 10.1679C20.8991 9.88622 19.8848 9.57887 19.0307 9.22031C18.1766 8.86174 17.4559 8.34951 16.8954 7.6836C16.3349 7.0177 16.0413 6.1469 16.0413 5.0712C16.0413 3.91867 16.3616 2.97104 17.0022 2.20268C17.6428 1.45994 18.4702 0.896481 19.4845 0.537916C20.4187 0.256187 21.4863 0.0769043 22.5807 0.0769043C24.6893 0.0769043 26.3975 0.537916 27.7321 1.43433C29.0666 2.33074 29.8407 3.79061 30.0275 5.78833L27.5185 6.22373C27.4918 5.32732 27.2783 4.55897 26.8779 3.94428C26.4776 3.30399 25.8904 2.81736 25.1697 2.51002C24.4224 2.17707 23.5415 2.0234 22.5273 2.0234C21.8867 2.0234 21.2461 2.12585 20.6055 2.35635C19.9649 2.58686 19.4578 2.91981 19.0574 3.38082C18.6571 3.84184 18.4435 4.40529 18.4435 5.04559C18.4435 5.68588 18.7104 6.19812 19.2176 6.60791C19.7247 7.0177 20.3653 7.32504 21.1393 7.52993C21.9134 7.73483 22.7942 7.93972 23.8351 8.09339C25.3832 8.3239 26.611 8.58001 27.5452 8.88736C28.4794 9.16909 29.2268 9.65571 29.8407 10.3216C30.4279 10.9875 30.7215 11.9095 30.7215 13.1133C30.7215 14.4707 30.3745 15.572 29.6538 16.3916C28.9332 17.2112 28.0257 17.8003 26.8779 18.1332C25.7569 18.4662 24.5291 18.6454 23.1946 18.6454C21.7532 18.6198 20.4721 18.3893 19.2976 17.9283Z" fill="#000000" />
  <path d="M37.8479 10.6546L31.1484 0.384277H33.951L37.1006 5.50663L37.4209 6.04448L39.049 8.81055L39.5295 8.01659C40.437 6.50549 40.9174 5.6603 41.0242 5.50663L44.1737 0.384277H47.003L40.3035 10.6546V18.3125H37.8746V10.6546H37.8479Z" fill="#000000" />
  <path d="M49.3519 0.384277H51.9409L58.9607 11.2181C59.3077 11.7303 59.6547 12.2938 60.0017 12.934C60.3754 13.5743 60.8024 14.3427 61.3096 15.2647H61.3362C61.2829 14.5988 61.2562 13.7792 61.2295 12.8316C61.2028 11.884 61.2028 11.1668 61.2028 10.7058V0.384277H63.5783V18.3125H60.8558L53.9161 7.47874C53.7026 7.12017 53.3289 6.5311 52.8484 5.68591C52.368 4.84073 51.9676 4.09799 51.6206 3.43208H51.5939C51.6206 4.20043 51.6473 5.04562 51.674 5.94203C51.7007 6.83844 51.7007 7.52996 51.7007 7.99097V18.3125H49.3252V0.384277H49.3519Z" fill="#000000" />
  <path d="M72.2533 2.40761H66.0342V0.384277H80.9013V2.40761H74.6822V18.3125H72.2533V2.40761Z" fill="#000000" />
  <path d="M83.3301 0.384277H85.759V8.22148H95.1276V0.384277H97.5565V18.3125H95.1276V10.296H85.759V18.3125H83.3301V0.384277Z" fill="#000000" />
  <path d="M104.523 17.9282C103.348 17.4672 102.414 16.7757 101.72 15.8537C101.026 14.9317 100.679 13.8047 100.679 12.4473L103.242 12.1912C103.242 13.1132 103.455 13.9328 103.909 14.5987C104.336 15.2646 104.95 15.7769 105.724 16.1354C106.498 16.494 107.352 16.6733 108.34 16.6733C109.861 16.6733 111.115 16.4171 112.05 15.8793C112.984 15.3415 113.464 14.4707 113.464 13.2669C113.464 12.6522 113.277 12.1656 112.877 11.807C112.477 11.4485 111.996 11.1923 111.409 11.0131C110.822 10.8338 110.048 10.6801 109.06 10.5008C108.286 10.3728 107.726 10.2703 107.352 10.1679C106.124 9.88615 105.11 9.5788 104.256 9.22024C103.402 8.86167 102.681 8.34944 102.121 7.68353C101.56 7.01763 101.266 6.14683 101.266 5.07113C101.266 3.9186 101.587 2.97097 102.227 2.20261C102.868 1.45987 103.695 0.896412 104.71 0.537847C105.724 0.179282 106.765 0 107.859 0C109.968 0 111.676 0.461012 113.01 1.35742C114.345 2.25384 115.119 3.71371 115.306 5.71143L112.797 6.14683C112.77 5.25041 112.557 4.48206 112.156 3.86738C111.756 3.22708 111.169 2.74046 110.448 2.43312C109.701 2.10017 108.82 1.9465 107.806 1.9465C107.165 1.9465 106.525 2.04894 105.884 2.27945C105.243 2.50995 104.736 2.84291 104.336 3.30392C103.936 3.76493 103.722 4.32839 103.722 4.96868C103.722 5.60898 103.989 6.12121 104.496 6.531C105.003 6.94079 105.644 7.24813 106.418 7.45303C107.192 7.65792 108.073 7.86281 109.114 8.01649C110.662 8.24699 111.889 8.50311 112.824 8.81045C113.758 9.09218 114.505 9.5788 115.119 10.2447C115.706 10.9106 116 11.8326 116 13.0364C116 14.3938 115.653 15.4951 114.932 16.3147C114.212 17.1343 113.304 17.7233 112.156 18.0563C111.035 18.3893 109.808 18.5685 108.473 18.5685C106.978 18.6198 105.697 18.3893 104.523 17.9282Z" fill="#000000" />
</svg>