<svg width="34" height="34" viewBox="0 0 34 34" fill="none" xmlns="http://www.w3.org/2000/svg">
  <path fill-rule="evenodd" clip-rule="evenodd" d="M0.0859354 15.0463C0.0859354 15.0889 0.0644531 15.153 0.0644531 15.1957C0.0644531 15.153 0.0644531 15.0889 0.0859354 15.0463Z" fill="white" />
  <path fill-rule="evenodd" clip-rule="evenodd" d="M2.04097 24.8852C1.86911 24.5864 1.71873 24.2663 1.54688 23.9675C3.95289 29.111 8.9153 32.8459 14.8014 33.5929C15.0807 33.6356 15.36 33.6569 15.6607 33.6782H15.6822C15.8111 33.6782 15.9615 33.6996 16.0904 33.6996C16.3696 33.7209 16.6489 33.7209 16.9497 33.7209H16.9712C17.2504 33.7209 17.5297 33.7209 17.8304 33.6996C17.9593 33.6996 18.1097 33.6782 18.2386 33.6782H18.2601C18.5394 33.6569 18.8401 33.6356 19.1194 33.5929C24.6403 32.8886 29.3449 29.5592 31.8799 24.9065C33.1903 22.5162 33.9207 19.7844 33.9207 16.8818C33.9207 13.9792 33.1903 11.2261 31.8799 8.83574C29.3235 4.16176 24.6403 0.832352 19.1194 0.128054C18.8401 0.0853695 18.5608 0.0640271 18.2601 0.0426847H18.2386C18.1097 0.0426847 17.9593 0.0213424 17.8304 0.0213424C17.5297 0 17.2504 0 16.9712 0H16.9497C16.6704 0 16.3696 0 16.0904 0.0213424C15.9615 0.0213424 15.8111 0.0426847 15.6822 0.0426847H15.6607C15.3815 0.0640271 15.0807 0.0853695 14.8014 0.128054C8.9153 0.875037 3.97437 4.60995 1.56836 9.75346C1.71873 9.43332 1.89059 9.13453 2.06245 8.8144C4.25364 4.97277 7.94859 2.45437 12.1376 2.45437C13.8562 2.45437 15.5104 2.88122 16.9926 3.64954C21.2891 5.86915 24.2751 10.9486 24.2751 16.8605C24.2751 22.7723 21.2676 27.8518 16.9926 30.0714C15.5104 30.8397 13.8777 31.2666 12.1376 31.2666C7.92711 31.2666 4.23216 28.7482 2.04097 24.8852Z" fill="white" />
  <path fill-rule="evenodd" clip-rule="evenodd" d="M0.0214823 15.8573C0.0214823 15.9213 0.0214823 15.9854 0 16.0494C0 15.9854 0 15.9213 0.0214823 15.8573Z" fill="white" />
  <path fill-rule="evenodd" clip-rule="evenodd" d="M0.0214823 17.8636C0.0214823 17.7996 0.0214823 17.7355 0 17.6715C0 17.7355 0 17.7996 0.0214823 17.8636Z" fill="white" />
  <path fill-rule="evenodd" clip-rule="evenodd" d="M0.0859354 18.6745C0.0859354 18.6319 0.0644531 18.5678 0.0644531 18.5251C0.0644531 18.5678 0.0644531 18.6319 0.0859354 18.6745Z" fill="white" />
  <path fill-rule="evenodd" clip-rule="evenodd" d="M0 16.8604C0 19.763 0.75188 22.5162 2.04082 24.8852C4.23201 28.7268 7.92696 31.2452 12.116 31.2452C13.8346 31.2452 15.4887 30.8183 16.971 30.05C12.6745 27.8518 9.66703 22.7723 9.66703 16.8604C9.66703 10.9486 12.6745 5.86912 16.971 3.64952C15.4887 2.88119 13.8561 2.45435 12.116 2.45435C7.92696 2.45435 4.23201 4.97274 2.04082 8.81437C0.75188 11.2047 0 13.9579 0 16.8604Z" fill="url(#paint0_linear_372_445)" />
  <path fill-rule="evenodd" clip-rule="evenodd" d="M0.0859354 15.0463C0.0859354 15.0889 0.0644531 15.153 0.0644531 15.1957C0.0644531 15.153 0.0644531 15.0889 0.0859354 15.0463Z" fill="url(#paint1_linear_372_445)" />
  <path fill-rule="evenodd" clip-rule="evenodd" d="M2.04097 24.8852C1.86911 24.5864 1.71873 24.2663 1.54688 23.9675C3.95289 29.111 8.9153 32.8459 14.8014 33.5929C15.0807 33.6356 15.36 33.6569 15.6607 33.6782H15.6822C15.8111 33.6782 15.9615 33.6996 16.0904 33.6996C16.3696 33.7209 16.6489 33.7209 16.9497 33.7209H16.9712C17.2504 33.7209 17.5297 33.7209 17.8304 33.6996C17.9593 33.6996 18.1097 33.6782 18.2386 33.6782H18.2601C18.5394 33.6569 18.8401 33.6356 19.1194 33.5929C24.6403 32.8886 29.3449 29.5592 31.8799 24.9065C33.1903 22.5162 33.9207 19.7844 33.9207 16.8818C33.9207 13.9792 33.1903 11.2261 31.8799 8.83574C29.3235 4.16176 24.6403 0.832352 19.1194 0.128054C18.8401 0.0853695 18.5608 0.0640271 18.2601 0.0426847H18.2386C18.1097 0.0426847 17.9593 0.0213424 17.8304 0.0213424C17.5297 0 17.2504 0 16.9712 0H16.9497C16.6704 0 16.3696 0 16.0904 0.0213424C15.9615 0.0213424 15.8111 0.0426847 15.6822 0.0426847H15.6607C15.3815 0.0640271 15.0807 0.0853695 14.8014 0.128054C8.9153 0.875037 3.97437 4.60995 1.56836 9.75346C1.71873 9.43332 1.89059 9.13453 2.06245 8.8144C4.25364 4.97277 7.94859 2.45437 12.1376 2.45437C13.8562 2.45437 15.5104 2.88122 16.9926 3.64954C21.2891 5.86915 24.2751 10.9486 24.2751 16.8605C24.2751 22.7723 21.2676 27.8518 16.9926 30.0714C15.5104 30.8397 13.8777 31.2666 12.1376 31.2666C7.92711 31.2666 4.23216 28.7482 2.04097 24.8852Z" fill="url(#paint2_linear_372_445)" />
  <path fill-rule="evenodd" clip-rule="evenodd" d="M0.0214823 15.8573C0.0214823 15.9213 0.0214823 15.9854 0 16.0494C0 15.9854 0 15.9213 0.0214823 15.8573Z" fill="url(#paint3_linear_372_445)" />
  <path fill-rule="evenodd" clip-rule="evenodd" d="M0.0214823 17.8636C0.0214823 17.7996 0.0214823 17.7355 0 17.6715C0 17.7355 0 17.7996 0.0214823 17.8636Z" fill="url(#paint4_linear_372_445)" />
  <path fill-rule="evenodd" clip-rule="evenodd" d="M0.0859354 18.6745C0.0859354 18.6319 0.0644531 18.5678 0.0644531 18.5251C0.0644531 18.5678 0.0644531 18.6319 0.0859354 18.6745Z" fill="url(#paint5_linear_372_445)" />
  <defs>
    <linearGradient id="paint0_linear_372_445" x1="16.9603" y1="16.8604" x2="0" y2="16.8604" gradientUnits="userSpaceOnUse">
      <stop stop-color="#9754AE" />
      <stop offset="0.09192" stop-color="#8B54AC" />
      <stop offset="0.7169" stop-color="#3E539B" />
      <stop offset="1" stop-color="#265595" />
    </linearGradient>
    <linearGradient id="paint1_linear_372_445" x1="0.0958173" y1="15.1148" x2="0.036091" y2="15.1319" gradientUnits="userSpaceOnUse">
      <stop offset="0.0989583" stop-color="#41942B" stop-opacity="0.31" />
      <stop offset="0.6302" stop-color="#4AB1EC" />
      <stop offset="1" stop-color="#70EAE2" stop-opacity="0.76" />
    </linearGradient>
    <linearGradient id="paint2_linear_372_445" x1="2.16823" y1="21.0382" x2="36.8516" y2="11.1086" gradientUnits="userSpaceOnUse">
      <stop offset="0.0989583" stop-color="#41942B" stop-opacity="0.31" />
      <stop offset="0.6302" stop-color="#4AB1EC" />
      <stop offset="1" stop-color="#70EAE2" stop-opacity="0.76" />
    </linearGradient>
    <linearGradient id="paint3_linear_372_445" x1="0.0346294" y1="15.9358" x2="-0.0317499" y2="15.9548" gradientUnits="userSpaceOnUse">
      <stop offset="0.0989583" stop-color="#41942B" stop-opacity="0.31" />
      <stop offset="0.6302" stop-color="#4AB1EC" />
      <stop offset="1" stop-color="#70EAE2" stop-opacity="0.76" />
    </linearGradient>
    <linearGradient id="paint4_linear_372_445" x1="0.0242105" y1="17.772" x2="-0.0178963" y2="17.784" gradientUnits="userSpaceOnUse">
      <stop offset="0.0989583" stop-color="#41942B" stop-opacity="0.31" />
      <stop offset="0.6302" stop-color="#4AB1EC" />
      <stop offset="1" stop-color="#70EAE2" stop-opacity="0.76" />
    </linearGradient>
    <linearGradient id="paint5_linear_372_445" x1="0.0818753" y1="18.5955" x2="0.0546627" y2="18.6033" gradientUnits="userSpaceOnUse">
      <stop offset="0.0989583" stop-color="#41942B" stop-opacity="0.31" />
      <stop offset="0.6302" stop-color="#4AB1EC" />
      <stop offset="1" stop-color="#70EAE2" stop-opacity="0.76" />
    </linearGradient>
  </defs>
</svg>